<svg width="20" height="18" viewBox="0 0 20 18" fill="none" xmlns="http://www.w3.org/2000/svg">
<path d="M20 8.44442C20 7.62393 19.5503 6.91525 18.8889 6.53053V1.22254C18.8889 0.918723 18.6465 0.111084 17.7778 0.111084C17.5306 0.111084 17.2851 0.193723 17.084 0.354834L14.1316 2.71699C12.6486 3.9024 10.7868 4.55553 8.88889 4.55553H2.22222C0.994792 4.55553 0 5.55032 0 6.77775V10.1111C0 11.3385 0.994792 12.3333 2.22222 12.3333H3.39236C3.3441 12.6972 3.31667 13.0673 3.31667 13.4444C3.31667 14.8253 3.63819 16.1302 4.20417 17.2965C4.38438 17.6677 4.77778 17.8889 5.19028 17.8889H7.76944C8.67396 17.8889 9.21701 16.8528 8.66875 16.1333C8.09931 15.3861 7.76076 14.4541 7.76076 13.4444C7.76076 13.0587 7.81701 12.6878 7.91389 12.3333H8.88889C10.7868 12.3333 12.6486 12.9864 14.1313 14.1718L17.0837 16.534C17.2806 16.6916 17.5252 16.7775 17.7774 16.7778C18.6427 16.7778 18.8885 15.9868 18.8885 15.6666V10.3587C19.5503 9.97358 20 9.2649 20 8.44442ZM16.6667 13.3548L15.5191 12.4368C13.6441 10.9368 11.2889 10.1111 8.88889 10.1111V6.77775C11.2889 6.77775 13.6441 5.95206 15.5191 4.45206L16.6667 3.534V13.3548Z" fill="#3B6362"/>
</svg>
