<svg width="20" height="20" viewBox="0 0 20 20" fill="none" xmlns="http://www.w3.org/2000/svg">
<path d="M20 8.717V19.2792C20 19.6764 19.68 19.9987 19.2858 19.9987H10.7149C10.3206 19.9987 10.0006 19.6764 10.0006 19.2792V17.3122C10.0397 14.901 10.2929 12.5914 10.8245 11.5406C11.1432 10.9086 11.6685 10.5647 12.2718 10.3807C13.4119 10.0355 15.4122 10.2716 16.2613 10.231C16.2613 10.231 18.826 10.3338 18.826 8.87056C18.826 7.69289 17.6797 7.78553 17.6797 7.78553C16.4162 7.81853 15.4538 7.73223 14.8303 7.48477C13.786 7.07107 13.7507 6.31218 13.7469 6.05838C13.6953 3.1269 9.4048 2.77538 5.62449 3.50254C1.49147 4.29442 5.66984 10.2627 5.66984 18.2297V19.2931C5.66228 19.684 5.34862 20 4.95812 20H0.71424C0.319959 20 0 19.6777 0 19.2805V1.01269C0 0.615483 0.319959 0.293147 0.71424 0.293147H4.70366C5.09794 0.293147 5.4179 0.615483 5.4179 1.01269C5.4179 1.60279 6.07671 1.93147 6.55288 1.58756C7.98765 0.552031 9.82931 0 11.8902 0C16.5069 0 19.9975 2.71066 19.9975 8.717H20ZM12.3361 6.5736C12.3361 5.72335 11.6521 5.03426 10.8081 5.03426C9.9641 5.03426 9.28009 5.72335 9.28009 6.5736C9.28009 7.42386 9.9641 8.11294 10.8081 8.11294C11.6521 8.11294 12.3361 7.42386 12.3361 6.5736Z" fill="#3B6362"/>
</svg>
