<svg width="245" height="242" viewBox="0 0 245 242" fill="none" xmlns="http://www.w3.org/2000/svg">
<g clip-path="url(#clip0_2040_567)">
<rect x="10" y="10" width="235" height="232" fill="black"/>
<rect width="235" height="232" fill="white"/>
<mask id="path-3-inside-1_2040_567" fill="white">
<path d="M0 0H235V232H0V0Z"/>
</mask>
<path d="M0 0H235V232H0V0Z" fill="url(#paint0_linear_2040_567)"/>
<path d="M0 0V-8H-8V0H0ZM235 0H243V-8H235V0ZM235 232V240H243V232H235ZM0 232H-8V240H0V232ZM0 8H235V-8H0V8ZM227 0V232H243V0H227ZM235 224H0V240H235V224ZM8 232V0H-8V232H8Z" fill="black" mask="url(#path-3-inside-1_2040_567)"/>
<path d="M175.841 115.204L182.551 116L175.841 116.796C145.929 120.345 122.345 143.929 118.796 173.841L118 180.551L117.204 173.841C113.655 143.929 90.071 120.345 60.1587 116.796L53.4492 116L60.1587 115.204C90.071 111.655 113.655 88.071 117.204 58.1587L118 51.4492L118.796 58.1587C122.345 88.071 145.929 111.655 175.841 115.204Z" fill="white" stroke="black" stroke-width="8"/>
</g>
<defs>
<linearGradient id="paint0_linear_2040_567" x1="117.5" y1="0" x2="117.5" y2="232" gradientUnits="userSpaceOnUse">
<stop stop-color="#E19B48"/>
<stop offset="1" stop-color="#E19B48" stop-opacity="0"/>
</linearGradient>
<clipPath id="clip0_2040_567">
<rect width="245" height="242" fill="white"/>
</clipPath>
</defs>
</svg>
