<svg width="245" height="242" viewBox="0 0 245 242" fill="none" xmlns="http://www.w3.org/2000/svg">
<g clip-path="url(#clip0_2040_228)">
<rect x="10" y="10" width="235" height="232" fill="black"/>
<rect width="235" height="232" fill="white"/>
<mask id="path-3-inside-1_2040_228" fill="white">
<path d="M0 0H235V232H0V0Z"/>
</mask>
<path d="M0 0H235V232H0V0Z" fill="url(#paint0_linear_2040_228)"/>
<path d="M0 0V-8H-8V0H0ZM235 0H243V-8H235V0ZM235 232V240H243V232H235ZM0 232H-8V240H0V232ZM0 8H235V-8H0V8ZM227 0V232H243V0H227ZM235 224H0V240H235V224ZM8 232V0H-8V232H8Z" fill="black" mask="url(#path-3-inside-1_2040_228)"/>
<mask id="path-5-inside-2_2040_228" fill="white">
<rect x="70" y="54" width="64" height="94" rx="6"/>
</mask>
<rect x="70" y="54" width="64" height="94" rx="6" fill="white" stroke="black" stroke-width="16" mask="url(#path-5-inside-2_2040_228)"/>
<mask id="path-6-inside-3_2040_228" fill="white">
<rect x="102" y="84" width="64" height="94" rx="6"/>
</mask>
<rect x="102" y="84" width="64" height="94" rx="6" fill="white" stroke="black" stroke-width="16" mask="url(#path-6-inside-3_2040_228)"/>
</g>
<defs>
<linearGradient id="paint0_linear_2040_228" x1="117.5" y1="0" x2="117.5" y2="232" gradientUnits="userSpaceOnUse">
<stop stop-color="#D7DD8C"/>
<stop offset="1" stop-color="white"/>
</linearGradient>
<clipPath id="clip0_2040_228">
<rect width="245" height="242" fill="white"/>
</clipPath>
</defs>
</svg>
