<svg width="245" height="242" viewBox="0 0 245 242" fill="none" xmlns="http://www.w3.org/2000/svg">
<g clip-path="url(#clip0_2040_534)">
<rect x="10" y="10" width="235" height="232" fill="black"/>
<rect width="235" height="232" fill="white"/>
<mask id="path-3-inside-1_2040_534" fill="white">
<path d="M0 0H235V232H0V0Z"/>
</mask>
<path d="M0 0H235V232H0V0Z" fill="url(#paint0_linear_2040_534)"/>
<path d="M0 0V-8H-8V0H0ZM235 0H243V-8H235V0ZM235 232V240H243V232H235ZM0 232H-8V240H0V232ZM0 8H235V-8H0V8ZM227 0V232H243V0H227ZM235 224H0V240H235V224ZM8 232V0H-8V232H8Z" fill="black" mask="url(#path-3-inside-1_2040_534)"/>
<circle cx="27.1533" cy="27.1533" r="23.1533" transform="matrix(-0.664649 0.747156 0.747156 0.664649 110.519 32)" fill="white" stroke="black" stroke-width="8"/>
<path d="M98.5686 182.164C103.063 189 113.535 191.006 122.29 185.25C131.045 179.494 133.354 169.085 128.859 162.248C124.365 155.412 113.893 153.406 105.138 159.162C96.3828 164.918 94.0739 175.328 98.5686 182.164Z" stroke="black" stroke-width="8"/>
<path d="M71.2451 50.0041C71.2451 50.0041 25.2335 129.191 84.4285 122.793C143.624 116.395 97.5179 144.21 97.5179 144.21" stroke="black" stroke-width="8" stroke-linecap="round"/>
<path d="M189.261 167.01C189.394 167.013 189.513 167.017 189.618 167.022C189.727 167.439 189.841 167.974 189.951 168.603C190.175 169.885 190.369 171.464 190.482 173.031C190.597 174.608 190.626 176.108 190.543 177.249C190.513 177.648 190.473 177.97 190.427 178.216C190.226 178.242 189.983 178.268 189.696 178.292C188.694 178.378 187.307 178.437 185.641 178.468C182.316 178.529 177.993 178.474 173.658 178.307C169.319 178.139 165.008 177.859 161.701 177.478C160.04 177.286 158.683 177.075 157.72 176.852C157.286 176.752 156.979 176.66 156.78 176.585C156.45 175.956 156.344 175.141 156.414 174.147C156.453 173.596 156.543 173.046 156.644 172.512C156.671 172.369 156.703 172.213 156.735 172.051C156.739 172.034 156.742 172.016 156.746 171.998C156.851 171.964 156.97 171.926 157.104 171.885C158.004 171.614 159.328 171.289 160.971 170.936C164.243 170.232 168.621 169.445 173.041 168.76C177.463 168.076 181.885 167.499 185.248 167.208C186.939 167.062 188.309 166.993 189.261 167.01ZM190.302 178.684C190.302 178.684 190.305 178.674 190.314 178.657C190.307 178.677 190.302 178.685 190.302 178.684ZM156.581 176.496C156.582 176.496 156.594 176.502 156.613 176.514C156.59 176.503 156.58 176.496 156.581 176.496ZM156.178 172.216C156.178 172.215 156.179 172.215 156.182 172.213C156.179 172.215 156.178 172.216 156.178 172.216ZM190.231 167.086C190.234 167.086 190.235 167.087 190.235 167.087C190.235 167.087 190.234 167.086 190.231 167.086Z" fill="white" stroke="black" stroke-width="4"/>
<path d="M149.216 112.121C149.556 112.153 149.99 112.22 150.501 112.325C151.622 112.556 152.997 112.946 154.373 113.452C155.754 113.96 157.072 114.562 158.104 115.195C159.005 115.748 159.492 116.207 159.709 116.501C159.682 116.728 159.607 117.08 159.457 117.573C159.156 118.563 158.628 119.885 157.911 121.457C156.484 124.588 154.408 128.496 152.223 132.318C150.041 136.136 147.775 139.824 145.981 142.508C145.08 143.857 144.322 144.915 143.768 145.604C143.729 145.651 143.693 145.696 143.658 145.738C143.402 145.681 143.15 145.63 142.925 145.585L142.892 145.579C142.81 145.562 142.728 145.546 142.645 145.529C142.007 145.402 141.368 145.274 140.762 145.117C140.199 144.97 139.777 144.824 139.492 144.689C139.55 144.389 139.634 143.996 139.744 143.516C139.984 142.466 140.332 141.055 140.76 139.4C141.615 136.093 142.778 131.853 144.002 127.656C145.227 123.455 146.505 119.324 147.591 116.225C148.137 114.668 148.619 113.415 149.009 112.555C149.086 112.387 149.155 112.243 149.216 112.121ZM139.185 144.511C139.186 144.511 139.19 144.514 139.197 144.521C139.189 144.514 139.185 144.511 139.185 144.511ZM143.19 146.25C143.19 146.25 143.193 146.248 143.199 146.243C143.193 146.248 143.19 146.25 143.19 146.25ZM159.719 116.335C159.72 116.335 159.72 116.341 159.72 116.354C159.719 116.342 159.719 116.335 159.719 116.335Z" fill="white" stroke="black" stroke-width="4"/>
<path d="M177.692 134.332C177.999 134.186 178.233 134.094 178.4 134.039C178.842 134.336 179.447 134.853 180.152 135.6C181.019 136.518 181.921 137.658 182.707 138.842C183.499 140.033 184.131 141.206 184.501 142.188C184.781 142.931 184.833 143.362 184.841 143.556C184.838 143.558 184.835 143.561 184.833 143.563C184.643 143.738 184.342 143.979 183.911 144.283C183.055 144.889 181.842 145.639 180.359 146.489C177.402 148.183 173.515 150.19 169.595 152.094C165.676 153.997 161.76 155.782 158.751 157.034C157.241 157.662 155.993 158.142 155.1 158.436C154.911 158.499 154.746 158.55 154.606 158.591C154.531 158.507 154.451 158.412 154.365 158.306C154.024 157.88 153.654 157.338 153.302 156.757C152.952 156.178 152.64 155.593 152.409 155.093C152.364 154.995 152.323 154.902 152.285 154.815C152.375 154.714 152.478 154.6 152.597 154.473C153.248 153.778 154.22 152.825 155.436 151.693C157.859 149.437 161.158 146.555 164.564 143.757C167.976 140.954 171.455 138.269 174.247 136.39C175.651 135.445 176.822 134.745 177.692 134.332ZM184.98 143.414C184.98 143.414 184.978 143.416 184.975 143.419C184.978 143.416 184.98 143.414 184.98 143.414ZM178.627 133.978C178.653 133.973 178.665 133.972 178.664 133.973C178.664 133.974 178.651 133.976 178.627 133.978Z" fill="white" stroke="black" stroke-width="4"/>
</g>
<defs>
<linearGradient id="paint0_linear_2040_534" x1="117.5" y1="0" x2="117.5" y2="232" gradientUnits="userSpaceOnUse">
<stop stop-color="#D9A520"/>
<stop offset="1" stop-color="#D9A520" stop-opacity="0"/>
</linearGradient>
<clipPath id="clip0_2040_534">
<rect width="245" height="242" fill="white"/>
</clipPath>
</defs>
</svg>
