<svg width="245" height="242" viewBox="0 0 245 242" fill="none" xmlns="http://www.w3.org/2000/svg">
<rect width="245" height="242" fill="#E5E5E5"/>
<g clip-path="url(#clip0_1601_3409)">
<rect x="10" y="10" width="235" height="232" fill="black"/>
<rect width="235" height="232" fill="white"/>
<mask id="path-3-inside-1_1601_3409" fill="white">
<path d="M0 0H235V232H0V0Z"/>
</mask>
<path d="M0 0H235V232H0V0Z" fill="url(#paint0_linear_1601_3409)"/>
<path d="M0 0V-8H-8V0H0ZM235 0H243V-8H235V0ZM235 232V240H243V232H235ZM0 232H-8V240H0V232ZM0 8H235V-8H0V8ZM227 0V232H243V0H227ZM235 224H0V240H235V224ZM8 232V0H-8V232H8Z" fill="black" mask="url(#path-3-inside-1_1601_3409)"/>
<circle cx="27.1533" cy="27.1533" r="23.1533" transform="matrix(-0.664649 0.747156 0.747156 0.664649 110.519 32)" fill="white" stroke="black" stroke-width="8"/>
<path d="M98.5686 182.164C103.063 189 113.535 191.006 122.29 185.25C131.045 179.494 133.354 169.085 128.859 162.248C124.365 155.412 113.893 153.406 105.138 159.162C96.3828 164.918 94.0739 175.328 98.5686 182.164Z" stroke="black" stroke-width="8"/>
<path d="M71.2451 50.0041C71.2451 50.0041 25.2335 129.191 84.4285 122.793C143.624 116.395 97.5179 144.21 97.5179 144.21" stroke="black" stroke-width="8" stroke-linecap="round"/>
<mask id="path-8-inside-2_1601_3409" fill="white">
<path d="M191.146 165.375C192.202 167.227 193.413 178.704 191.824 179.921C190.236 181.137 156.942 180.376 155.29 177.979C153.638 175.582 154.733 172.205 154.951 170.706C155.169 169.207 190.091 163.523 191.146 165.375Z"/>
</mask>
<path d="M191.146 165.375C192.202 167.227 193.413 178.704 191.824 179.921C190.236 181.137 156.942 180.376 155.29 177.979C153.638 175.582 154.733 172.205 154.951 170.706C155.169 169.207 190.091 163.523 191.146 165.375Z" fill="white" stroke="black" stroke-width="8" mask="url(#path-8-inside-2_1601_3409)"/>
<mask id="path-9-inside-3_1601_3409" fill="white">
<path d="M148.208 110.158C150.143 109.638 160.083 112.57 161.625 115.818C163.167 119.066 145.478 148.508 144.119 147.944C142.761 147.381 137.417 147.072 137.411 145.114C137.406 143.156 146.273 110.677 148.208 110.158Z"/>
</mask>
<path d="M148.208 110.158C150.143 109.638 160.083 112.57 161.625 115.818C163.167 119.066 145.478 148.508 144.119 147.944C142.761 147.381 137.417 147.072 137.411 145.114C137.406 143.156 146.273 110.677 148.208 110.158Z" fill="white" stroke="black" stroke-width="8" mask="url(#path-9-inside-3_1601_3409)"/>
<mask id="path-10-inside-4_1601_3409" fill="white">
<path d="M178.961 132.052C182.011 133.576 187.758 141.575 186.715 144.377C185.673 147.18 155.35 161.515 153.964 160.683C152.578 159.85 150.314 155.861 150.087 154.52C149.859 153.179 175.91 130.528 178.961 132.052Z"/>
</mask>
<path d="M178.961 132.052C182.011 133.576 187.758 141.575 186.715 144.377C185.673 147.18 155.35 161.515 153.964 160.683C152.578 159.85 150.314 155.861 150.087 154.52C149.859 153.179 175.91 130.528 178.961 132.052Z" fill="white" stroke="black" stroke-width="8" mask="url(#path-10-inside-4_1601_3409)"/>
</g>
<defs>
<linearGradient id="paint0_linear_1601_3409" x1="117.5" y1="0" x2="117.5" y2="232" gradientUnits="userSpaceOnUse">
<stop stop-color="#D9A520"/>
<stop offset="1" stop-color="#D9A520" stop-opacity="0"/>
</linearGradient>
<clipPath id="clip0_1601_3409">
<rect width="245" height="242" fill="white"/>
</clipPath>
</defs>
</svg>
